<svg width="25" height="15" viewBox="0 0 25 15" fill="none" xmlns="http://www.w3.org/2000/svg">
<path fill-rule="evenodd" clip-rule="evenodd" d="M22.5067 0H2.36782C1.51208 0 0.818359 0.708368 0.818359 1.58044V13.4196C0.818359 14.2924 1.51382 15 2.36782 15H22.5067C23.3624 15 24.0561 14.2916 24.0561 13.4196V1.58044C24.0561 0.707589 23.3607 0 22.5067 0Z" fill="#227FBB"/>
<path fill-rule="evenodd" clip-rule="evenodd" d="M2.91465 5.39015L2.46727 4.27888L2.02244 5.39015H2.91465ZM12.7705 4.94764C12.6807 5.00322 12.5744 5.00507 12.4472 5.00507H11.6531V4.38591H12.458C12.5719 4.38591 12.6907 4.39112 12.7679 4.43619C12.8527 4.4768 12.9052 4.56323 12.9052 4.68263C12.9052 4.80446 12.8553 4.90249 12.7705 4.94764C12.8553 4.90249 12.7705 4.94764 12.7705 4.94764ZM18.4352 5.39015L17.9829 4.27888L17.533 5.39015H18.4352ZM7.87581 6.593H7.20572L7.20325 4.40979L6.25544 6.593H5.68153L4.73125 4.40785V6.593H3.40179L3.15063 5.97123H1.78967L1.53596 6.593H0.82603L1.99654 3.80542H2.96769L4.07939 6.44468V3.80542H5.14622L6.00164 5.69646L6.78745 3.80542H7.87573V6.593H7.87581ZM10.5465 6.593H8.36295V3.80542H10.5465V4.38591H9.01662V4.88837H10.5098V5.45977H9.01662V6.01646H10.5465V6.593ZM13.6253 4.55617C13.6253 5.00061 13.3343 5.23023 13.1647 5.29918C13.3077 5.35467 13.4298 5.45271 13.488 5.53393C13.5803 5.67258 13.5962 5.79643 13.5962 6.04539V6.593H12.9369L12.9345 6.24146C12.9345 6.07372 12.9502 5.8325 12.8313 5.69839C12.7358 5.60035 12.5902 5.57908 12.3549 5.57908H11.6532V6.593H10.9996V3.80542H12.503C12.837 3.80542 13.0832 3.81442 13.2945 3.93894C13.5013 4.06346 13.6253 4.24524 13.6253 4.55617C13.6253 4.55617 13.6253 4.24524 13.6253 4.55617ZM14.6713 6.593H14.0043V3.80542H14.6713V6.593ZM22.4088 6.593H21.4825L20.2436 4.50076V6.593H18.9124L18.658 5.97123H17.3002L17.0534 6.593H16.2885C15.9708 6.593 15.5685 6.52136 15.3407 6.28468C15.111 6.04799 14.9915 5.7274 14.9915 5.22048C14.9915 4.80706 15.0629 4.42913 15.3439 4.13048C15.5552 3.908 15.8861 3.80542 16.3365 3.80542H16.9693V4.40272H16.3498C16.1113 4.40272 15.9766 4.43888 15.8468 4.56786C15.7354 4.68523 15.6589 4.90712 15.6589 5.19929C15.6589 5.49794 15.7172 5.71327 15.8387 5.85394C15.9393 5.96425 16.1222 5.99771 16.2942 5.99771H16.5878L17.509 3.80551H18.4884L19.5951 6.44216V3.80551H20.5903L21.7393 5.7469V3.80551H22.4088V6.593ZM0.818442 7.14052H1.93525L2.18707 6.52136H2.75084L3.002 7.14052H5.19942V6.66715L5.39556 7.14254H6.53629L6.73244 6.66009V7.14052H12.1934L12.1909 6.12417H12.2965C12.3705 6.12677 12.3921 6.13375 12.3921 6.25828V7.14052H15.2166V6.90392C15.4444 7.02836 15.7987 7.14052 16.265 7.14052H17.4533L17.7076 6.52136H18.2713L18.52 7.14052H20.8098V6.55239L21.1566 7.14052H22.9915V3.25269H21.1755V3.71184L20.9212 3.25269H19.0579V3.71184L18.8244 3.25269H16.3074C15.8861 3.25269 15.5157 3.31263 15.2166 3.4797V3.25269H13.4797V3.4797C13.2893 3.30751 13.0299 3.25269 12.7415 3.25269H6.39583L5.97005 4.25685L5.53281 3.25269H3.5341V3.71184L3.31453 3.25269H1.60994L0.818359 5.10117V7.14052H0.818442ZM24.0684 9.19324H22.8771C22.7581 9.19324 22.6791 9.19778 22.6125 9.2436C22.5436 9.28875 22.517 9.35576 22.517 9.44421C22.517 9.5494 22.5753 9.62095 22.66 9.65189C22.7289 9.67636 22.803 9.68351 22.9119 9.68351L23.2661 9.69317C23.6236 9.70217 23.8622 9.76481 24.0077 9.91758C24.0342 9.93885 24.0501 9.96273 24.0684 9.98661V9.19324ZM24.0684 11.0315C23.9096 11.2682 23.6002 11.3881 23.1813 11.3881H21.919V10.7902H23.1762C23.3009 10.7902 23.3882 10.7735 23.4408 10.7212C23.4863 10.6781 23.518 10.6154 23.518 10.5394C23.518 10.4581 23.4863 10.3936 23.4382 10.355C23.3908 10.3124 23.3217 10.2931 23.2079 10.2931C22.5942 10.2718 21.8285 10.3124 21.8285 9.43009C21.8285 9.02567 22.0804 8.59997 22.7663 8.59997H24.0683V8.04522H22.8586C22.4935 8.04522 22.2283 8.13434 22.0405 8.2729V8.04522H20.2512C19.9651 8.04522 19.6292 8.11752 19.4704 8.2729V8.04522H16.2752V8.2729C16.0209 8.08591 15.5918 8.04522 15.3938 8.04522H13.2862V8.2729C13.085 8.07431 12.6376 8.04522 12.3649 8.04522H10.0062L9.4664 8.64067L8.96087 8.04522H5.43738V11.9357H8.89455L9.45073 11.3309L9.97466 11.9357L12.1057 11.9377V11.0225H12.3152C12.5979 11.0269 12.9314 11.0153 13.2256 10.8857V11.9357H14.9833V10.9217H15.0681C15.1763 10.9217 15.187 10.9262 15.187 11.0364V11.9356H20.5266C20.8656 11.9356 21.2199 11.8471 21.4161 11.6866V11.9356H23.1098C23.4623 11.9356 23.8065 11.8852 24.0684 11.7562V11.0315ZM21.461 9.91758C21.5883 10.0519 21.6565 10.2214 21.6565 10.5083C21.6565 11.1081 21.2889 11.3881 20.6297 11.3881H19.3565V10.7902H20.6246C20.7485 10.7902 20.8364 10.7735 20.8915 10.7212C20.9365 10.6781 20.9688 10.6154 20.9688 10.5394C20.9688 10.4581 20.9339 10.3936 20.889 10.355C20.839 10.3124 20.7701 10.2931 20.6562 10.2931C20.0449 10.2718 19.2794 10.3124 19.2794 9.43009C19.2794 9.02567 19.5287 8.59997 20.214 8.59997H21.5244V9.19341H20.3253C20.2064 9.19341 20.1292 9.19795 20.0634 9.24377C19.9918 9.28892 19.9653 9.35593 19.9653 9.44438C19.9653 9.54957 20.0261 9.62112 20.1083 9.65206C20.1772 9.67653 20.2513 9.68367 20.3627 9.68367L20.7145 9.69334C21.0694 9.70217 21.313 9.76473 21.461 9.91758C21.461 9.91758 21.313 9.76473 21.461 9.91758ZM15.5628 9.74539C15.4754 9.79827 15.3673 9.80281 15.2401 9.80281H14.446V9.17659H15.2509C15.3673 9.17659 15.4837 9.17911 15.5628 9.22695C15.6476 9.2721 15.6982 9.35845 15.6982 9.47776C15.6982 9.59707 15.6476 9.69317 15.5628 9.74539C15.6476 9.69317 15.5628 9.74539 15.5628 9.74539ZM15.9576 10.0924C16.1031 10.1471 16.222 10.2452 16.2778 10.3265C16.3701 10.4626 16.3835 10.5896 16.3861 10.8354V11.3881H15.7299V11.0393C15.7299 10.8715 15.7457 10.6232 15.6242 10.4935C15.5287 10.3936 15.3831 10.3698 15.1447 10.3698H14.4461V11.3881H13.7893V8.59989H15.2984C15.6293 8.59989 15.8703 8.61477 16.0849 8.73147C16.2912 8.85852 16.4209 9.03256 16.4209 9.35063C16.4208 9.79567 16.1297 10.0228 15.9576 10.0924C16.1297 10.0228 15.9576 10.0924 15.9576 10.0924ZM16.7833 8.59989H18.9649V9.17651H17.4343V9.68342H18.9276V10.2523H17.4343V10.8071L18.9649 10.8096V11.3881H16.7833V8.59989ZM12.3732 9.88664H11.5285V9.17659H12.3808C12.6168 9.17659 12.7806 9.27463 12.7806 9.51846C12.7806 9.7596 12.6244 9.88664 12.3732 9.88664ZM10.8775 11.1345L9.87395 9.9988L10.8775 8.89913V11.1345ZM8.28583 10.8071H6.67874V10.2523H8.11377V9.68342H6.67874V9.17651H8.3175L9.03246 9.98905L8.28583 10.8071ZM13.4824 9.51846C13.4824 10.293 12.9155 10.4529 12.3441 10.4529H11.5285V11.3881H10.2581L9.4532 10.4651L8.61675 11.3881H6.02762V8.59989H8.65659L9.46079 9.51383L10.2922 8.59989H12.3808C12.8996 8.59989 13.4824 8.74627 13.4824 9.51846C13.4824 9.51846 13.4824 8.74627 13.4824 9.51846Z" fill="white"/>
</svg>
