<svg width="16" height="16" viewBox="0 0 16 16" fill="none" xmlns="http://www.w3.org/2000/svg">
<path fill-rule="evenodd" clip-rule="evenodd" d="M0.485352 1.61646C0.485352 1.2841 0.617383 0.965348 0.8524 0.730331C1.08742 0.495314 1.40617 0.363283 1.73853 0.363283H14.2308C14.3955 0.363014 14.5587 0.395235 14.7109 0.458101C14.8631 0.520967 15.0015 0.613244 15.118 0.729649C15.2346 0.846053 15.327 0.984299 15.39 1.13647C15.453 1.28864 15.4854 1.45175 15.4854 1.61646V14.1087C15.4855 14.2735 15.4532 14.4366 15.3903 14.5889C15.3273 14.7411 15.235 14.8795 15.1185 14.996C15.0021 15.1125 14.8638 15.2049 14.7116 15.268C14.5594 15.331 14.3962 15.3634 14.2315 15.3633H1.73853C1.57391 15.3633 1.41089 15.3308 1.2588 15.2678C1.10672 15.2048 0.968537 15.1124 0.852159 14.996C0.735781 14.8796 0.643487 14.7413 0.580549 14.5892C0.517611 14.4371 0.485262 14.274 0.485352 14.1094V1.61646ZM6.42262 6.08237H8.45376V7.10237C8.74694 6.51601 9.49694 5.98828 10.624 5.98828C12.7847 5.98828 13.2967 7.15624 13.2967 9.29919V13.2687H11.1101V9.78737C11.1101 8.56692 10.8169 7.87828 10.0724 7.87828C9.03944 7.87828 8.6099 8.62078 8.6099 9.78737V13.2687H6.42262V6.08237ZM2.67262 13.1753H4.8599V5.98828H2.67262V13.1746V13.1753ZM5.17285 3.64419C5.17698 3.83147 5.14365 4.01768 5.07483 4.19191C5.00602 4.36613 4.90309 4.52485 4.7721 4.65876C4.64111 4.79267 4.48469 4.89906 4.31203 4.9717C4.13936 5.04433 3.95392 5.08175 3.7666 5.08175C3.57928 5.08175 3.39384 5.04433 3.22118 4.9717C3.04851 4.89906 2.89209 4.79267 2.7611 4.65876C2.63011 4.52485 2.52719 4.36613 2.45837 4.19191C2.38955 4.01768 2.35623 3.83147 2.36035 3.64419C2.36845 3.27659 2.52016 2.92678 2.783 2.66966C3.04584 2.41254 3.39891 2.26857 3.7666 2.26857C4.13429 2.26857 4.48736 2.41254 4.7502 2.66966C5.01304 2.92678 5.16476 3.27659 5.17285 3.64419Z" fill="#023047"/>
</svg>
