<svg width="16" height="16" viewBox="0 0 16 16" fill="none" xmlns="http://www.w3.org/2000/svg">
<path d="M4.90481 0.908281H4.90431C4.16031 0.943574 3.67166 1.06077 3.25269 1.22297L3.2485 1.22459L3.2485 1.22457C2.81638 1.38742 2.42498 1.64253 2.10154 1.97212L2.0949 1.97889L2.09484 1.97882C1.76498 2.30245 1.50964 2.69411 1.34661 3.1265L1.34506 3.13062L1.34504 3.13062C1.18192 3.55194 1.06381 4.04335 1.02984 4.79451C0.994213 5.58236 0.985352 5.82858 0.985352 7.86328C0.985352 9.89758 0.99354 10.1435 1.02982 10.933L4.90481 0.908281ZM4.90481 0.908281L4.9163 0.907752M4.90481 0.908281L4.9163 0.907752M4.9163 0.907752C5.70441 0.871471 5.95027 0.863281 7.98535 0.863281C10.0201 0.863281 10.2663 0.872142 11.0541 0.907771C11.8053 0.94174 12.2967 1.05985 12.718 1.22297L12.718 1.22298M4.9163 0.907752L12.718 1.22298M12.718 1.22298L12.7218 1.22441M12.718 1.22298L12.7218 1.22441M12.7218 1.22441C13.1539 1.38772 13.5459 1.64296 13.87 1.97295L13.8699 1.97302M12.7218 1.22441L13.8699 1.97302M13.8699 1.97302L13.8767 1.97964M13.8699 1.97302L13.8767 1.97964M13.8767 1.97964C14.2063 2.30276 14.4606 2.69364 14.6233 3.12608L14.6232 3.12609M13.8767 1.97964L14.6232 3.12609M14.6232 3.12609L14.6252 3.13119M14.6232 3.12609L14.6252 3.13119M14.6252 3.13119C14.7887 3.5519 14.9062 4.04312 14.9409 4.79351C14.9772 5.58301 14.9854 5.8289 14.9854 7.86328C14.9854 9.89792 14.9765 10.1442 14.9409 10.9327C14.9069 11.6825 14.7888 12.1737 14.6252 12.5947L14.6252 12.5947M14.6252 3.13119L14.6252 12.5947M14.6252 12.5947L14.6232 12.5998M14.6252 12.5947L14.6232 12.5998M14.6232 12.5998C14.4606 13.0323 14.2057 13.4242 13.8762 13.7481L13.8761 13.748M14.6232 12.5998L13.8761 13.748M13.8761 13.748L13.87 13.7543M13.8761 13.748L13.87 13.7543M13.87 13.7543C13.5461 14.084 13.1544 14.3386 12.7223 14.5013L12.7223 14.5012M13.87 13.7543L12.7223 14.5012M12.7223 14.5012L12.7174 14.5031M12.7223 14.5012L12.7174 14.5031M12.7174 14.5031C12.2967 14.6666 11.8055 14.7842 11.0551 14.8188M12.7174 14.5031L11.0551 14.8188M3.25396 14.5031L3.25395 14.5031C3.67496 14.6667 4.16614 14.7848 4.91593 14.8188C5.70444 14.8544 5.95071 14.8633 7.98535 14.8633C10.0204 14.8633 10.2663 14.8551 11.0551 14.8188M3.25396 14.5031L11.0551 14.8188M3.25396 14.5031L3.24884 14.5012M3.25396 14.5031L3.24884 14.5012M3.24884 14.5012C2.81634 14.3386 2.42448 14.0836 2.10054 13.7541L2.10059 13.7541M3.24884 14.5012L2.10059 13.7541M2.10059 13.7541L2.09425 13.7478M2.10059 13.7541L2.09425 13.7478M2.09425 13.7478C1.76458 13.4242 1.50947 13.0326 1.34669 12.6003L1.34671 12.6003M2.09425 13.7478L1.34671 12.6003M1.34671 12.6003L1.34504 12.5959M1.34671 12.6003L1.34504 12.5959M1.34504 12.5959C1.18202 12.1749 1.06446 11.6834 1.02982 10.9331L1.34504 12.5959ZM3.3801 1.55084L3.38038 1.55073C3.69492 1.42832 4.14524 1.29472 4.93186 1.2588M3.3801 1.55084L11.0388 1.2588M3.3801 1.55084C2.96881 1.71119 2.66009 1.90973 2.34807 2.22119C2.04805 2.51378 1.81685 2.86943 1.67122 3.26238C1.54924 3.57674 1.41664 4.02655 1.38087 4.80978M3.3801 1.55084L12.5863 1.54915M4.93186 1.2588L4.95467 1.75822L4.93186 1.2588ZM4.93186 1.2588C5.7344 1.22213 5.98078 1.21464 7.98535 1.21464C9.98992 1.21464 10.2363 1.22213 11.0388 1.2588M11.0388 1.2588C11.8221 1.29457 12.2719 1.42717 12.5863 1.54915M11.0388 1.2588L12.5863 1.54915M12.5863 1.54915C12.9792 1.6948 13.3348 1.92598 13.6274 2.22596C13.9389 2.538 14.1374 2.84673 14.2978 3.25803L14.2979 3.25831C14.4203 3.57285 14.5539 4.02317 14.5898 4.80978C14.6265 5.61232 14.634 5.85871 14.634 7.86328C14.634 9.86785 14.6265 10.1142 14.5898 10.9168C14.5541 11.7 14.4215 12.1498 14.2995 12.4642C14.1541 12.8564 13.9229 13.2126 13.6227 13.5053C13.3106 13.8168 13.0019 14.0154 12.5906 14.1757L12.5903 14.1758C12.2758 14.2982 11.8255 14.4318 11.0389 14.4678C10.2363 14.5044 9.9906 14.5119 7.98535 14.5119C5.9801 14.5119 5.73439 14.5044 4.93186 14.4678C4.14863 14.432 3.69881 14.2994 3.38445 14.1774C2.99323 14.0324 2.63789 13.802 2.34563 13.503C2.04663 13.2108 1.81628 12.8554 1.67123 12.4642C1.54925 12.1498 1.41664 11.7 1.38087 10.9168C1.3442 10.1142 1.33672 9.86785 1.33672 7.86328C1.33672 5.85871 1.3442 5.61232 1.38087 4.80978M1.38087 4.80978L1.88029 4.8326L1.38087 4.80978ZM8.85752 10.739C8.19209 10.9402 7.47746 10.9042 6.83563 10.6371C6.42574 10.4671 6.05863 10.2083 5.76072 9.87945C5.46276 9.55049 5.24143 9.15957 5.11267 8.73481C4.98392 8.31006 4.95095 7.86204 5.01612 7.42301C5.0813 6.98398 5.24301 6.56487 5.4896 6.19584C5.7362 5.8268 6.06155 5.51704 6.44223 5.28884C6.82292 5.06064 7.24946 4.91968 7.69116 4.87612C8.13285 4.83255 8.57872 4.88746 8.99664 5.03689C9.41455 5.18631 9.79414 5.42653 10.1081 5.74025L8.85752 10.739ZM8.85752 10.739C9.52308 10.5377 10.0981 10.1116 10.4844 9.53352M8.85752 10.739L10.4844 9.53352M10.4844 9.53352C10.8708 8.95539 11.0444 8.26108 10.9757 7.56916M10.4844 9.53352L10.9757 7.56916M10.9757 7.56916C10.907 6.87747 10.6003 6.23108 10.1081 5.7403L10.9757 7.56916ZM5.613 5.49093C5.92454 5.17938 6.29439 4.93225 6.70144 4.76365C7.10849 4.59504 7.54476 4.50826 7.98535 4.50826C8.42594 4.50826 8.86221 4.59504 9.26926 4.76365C9.67631 4.93225 10.0462 5.17938 10.3577 5.49093C10.6692 5.80247 10.9164 6.17232 11.085 6.57937C11.2536 6.98642 11.3404 7.42269 11.3404 7.86328C11.3404 8.30387 11.2536 8.74014 11.085 9.14719C10.9164 9.55424 10.6692 9.9241 10.3577 10.2356C9.72852 10.8648 8.87516 11.2183 7.98535 11.2183C7.09555 11.2183 6.24218 10.8648 5.613 10.2356C4.98381 9.60645 4.63033 8.75309 4.63033 7.86328C4.63033 6.97347 4.98381 6.12011 5.613 5.49093ZM12.4465 4.08505C12.4244 4.13545 12.3923 4.18088 12.3523 4.21866C12.2744 4.29214 12.1709 4.33237 12.0638 4.33081C11.9568 4.32925 11.8545 4.28602 11.7788 4.2103C11.7031 4.13458 11.6598 4.03234 11.6583 3.92526C11.6567 3.81819 11.6969 3.71473 11.7704 3.63683C11.8082 3.59678 11.8536 3.56472 11.904 3.54254C11.9544 3.52036 12.0088 3.50852 12.0638 3.50772C12.1189 3.50691 12.1735 3.51717 12.2246 3.53787C12.2756 3.55856 12.3219 3.58929 12.3609 3.62822C12.3998 3.66716 12.4305 3.71351 12.4512 3.76453C12.4719 3.81555 12.4822 3.87021 12.4814 3.92526C12.4806 3.98032 12.4687 4.03465 12.4465 4.08505Z" fill="#666666" stroke="black"/>
</svg>
