<svg width="30" height="30" viewBox="0 0 30 30" fill="none" xmlns="http://www.w3.org/2000/svg">
<rect width="30" height="30" fill="#023047"/>
<path d="M10.0497 14.2012L8.19067 16.0602C7.4283 16.8225 7 17.8565 7 18.9347C7 20.0128 7.4283 21.0468 8.19067 21.8092C8.95304 22.5716 9.98704 22.9999 11.0652 22.9999C12.1434 22.9999 13.1774 22.5716 13.9397 21.8092L16.4166 19.331C16.8763 18.8712 17.219 18.3079 17.416 17.6882C17.6129 17.0685 17.6584 16.4107 17.5485 15.7698C17.4385 15.129 17.1765 14.5239 16.7844 14.0052C16.3922 13.4866 15.8813 13.0696 15.2947 12.7893L14.5007 13.5833C14.4201 13.6641 14.35 13.7547 14.292 13.8529C14.7453 13.9832 15.1567 14.2296 15.4856 14.5676C15.8145 14.9057 16.0494 15.3237 16.1673 15.7803C16.2851 16.237 16.2817 16.7165 16.1574 17.1715C16.0331 17.6264 15.7923 18.0411 15.4586 18.3744L12.9831 20.8513C12.4746 21.3598 11.785 21.6454 11.0659 21.6454C10.3468 21.6454 9.65711 21.3598 9.14862 20.8513C8.64013 20.3428 8.35447 19.6531 8.35447 18.934C8.35447 18.2149 8.64013 17.5252 9.14862 17.0168L10.2231 15.9436C10.0715 15.3755 10.0129 14.7866 10.0497 14.1998V14.2012Z" fill="white"/>
<path d="M12.5849 11.6675C12.1252 12.1273 11.7824 12.6907 11.5855 13.3103C11.3885 13.93 11.3431 14.5878 11.453 15.2287C11.5629 15.8695 11.825 16.4747 12.2171 16.9933C12.6093 17.5119 13.1201 17.9289 13.7068 18.2092L14.7569 17.1578C14.2975 17.0346 13.8786 16.7926 13.5424 16.4562C13.2061 16.1198 12.9643 15.7008 12.8413 15.2414C12.7182 14.7819 12.7183 14.2982 12.8414 13.8388C12.9646 13.3793 13.2065 12.9604 13.5428 12.6241L16.0183 10.1473C16.5268 9.63878 17.2165 9.35311 17.9356 9.35311C18.6547 9.35311 19.3444 9.63878 19.8529 10.1473C20.3613 10.6558 20.647 11.3454 20.647 12.0645C20.647 12.7836 20.3613 13.4733 19.8529 13.9818L18.7784 15.0549C18.9301 15.624 18.9884 16.2134 18.9518 16.7987L20.8108 14.9397C21.5732 14.1774 22.0015 13.1434 22.0015 12.0652C22.0015 10.987 21.5732 9.95304 20.8108 9.19067C20.0484 8.4283 19.0144 8 17.9363 8C16.8581 8 15.8241 8.4283 15.0617 9.19067L12.5849 11.6675Z" fill="white"/>
</svg>
