<svg width="36" height="10" viewBox="0 0 36 10" fill="none" xmlns="http://www.w3.org/2000/svg">
<path fill-rule="evenodd" clip-rule="evenodd" d="M28.058 1.76485C27.1757 1.76485 26.4698 2.00014 25.8816 2.11779L25.7051 3.47071C25.9992 3.35307 26.8228 3.11778 27.5286 3.05895C28.2345 3.05895 28.6463 3.1766 28.5286 3.82365C26.411 3.82365 24.9992 4.23541 24.7051 5.64716C24.2934 8.00007 26.8816 8.05889 27.8816 7.00008L27.7639 7.64713H29.6462L30.4698 3.82365C30.7639 2.23543 29.3521 1.70603 28.058 1.76485ZM28.1757 5.70598C28.058 6.17656 27.6463 6.35303 27.1757 6.41185C26.7639 6.41185 26.411 6.17656 26.6463 5.70598C26.8816 5.35304 27.411 5.35304 27.8227 5.35304H28.2933C28.2345 5.29422 28.1757 5.52951 28.1757 5.70598Z" fill="#32A6CE"/>
<path fill-rule="evenodd" clip-rule="evenodd" d="M25.7051 3.47077C25.9992 3.35312 26.8228 3.11783 27.5286 3.05901C28.2345 3.05901 28.6463 3.17665 28.5286 3.82371C26.411 3.82371 24.9992 4.23546 24.7051 5.64721C24.2934 8.00012 26.8816 8.05895 27.8816 7.00014L27.7639 7.64719H29.6462L30.4698 3.82371C30.8227 2.23549 29.3521 1.82373 28.058 1.82373L25.7051 3.47077ZM28.1757 5.70603C28.058 6.17662 27.6463 6.35309 27.1757 6.41191C26.7639 6.41191 26.411 6.17662 26.6463 5.70603C26.8816 5.3531 27.411 5.3531 27.8227 5.3531H28.2933C28.2345 5.29427 28.1757 5.52957 28.1757 5.70603Z" fill="#1A80AD"/>
<path fill-rule="evenodd" clip-rule="evenodd" d="M32.0587 0L30.5293 7.64696H32.4116L33.9998 0H32.0587Z" fill="#32A6CE"/>
<path fill-rule="evenodd" clip-rule="evenodd" d="M33.4116 0L30.5293 7.64696H32.4116L33.9998 0H32.0587H33.4116Z" fill="#1A80AD"/>
<path fill-rule="evenodd" clip-rule="evenodd" d="M23.2939 0H19.8233L18.2939 7.64696H20.3527L20.8821 5.29405H22.3527C23.7645 5.29405 24.9409 4.47053 25.235 2.99996C25.5291 1.2941 24.2939 0 23.2939 0ZM23.2351 2.64703C23.1174 3.17643 22.588 3.52937 22.0586 3.52937H21.1174L21.5292 1.76468H22.5292C23.0586 1.76468 23.3527 2.11762 23.2351 2.64703Z" fill="#32A6CE"/>
<path fill-rule="evenodd" clip-rule="evenodd" d="M23.2941 0H20.9412L18.2354 7.64696H20.2941L20.8236 5.29405H22.2941C23.7059 5.29405 24.8823 4.47053 25.1764 2.99996C25.5294 1.2941 24.2941 0 23.2941 0ZM23.2353 2.64703C23.1176 3.17643 22.5882 3.52937 22.0588 3.52937H21.1177L21.5294 1.76468H22.5294C23.0588 1.76468 23.3529 2.11762 23.2353 2.64703Z" fill="#1A80AD"/>
<path fill-rule="evenodd" clip-rule="evenodd" d="M9.70594 1.76485C8.8236 1.76485 8.11773 2.00014 7.58832 2.11779L7.41185 3.47071C7.64714 3.35307 8.52948 3.11778 9.23536 3.05895C9.94123 3.05895 10.353 3.1766 10.2353 3.82365C8.17655 3.82365 6.7648 4.23541 6.47069 5.64716C6.05893 8.00007 8.58831 8.05889 9.5883 7.00008L9.47065 7.64713H11.353L12.1765 3.82365C12.4706 2.23543 11 1.70603 9.70594 1.76485ZM9.88241 5.70598C9.76476 6.17656 9.353 6.35303 8.88242 6.41185C8.47066 6.41185 8.11773 6.17656 8.41184 5.70598C8.64713 5.35304 9.17654 5.35304 9.52947 5.35304H10.0001C9.94123 5.29422 9.88241 5.52951 9.88241 5.70598Z" fill="#21789E"/>
<path fill-rule="evenodd" clip-rule="evenodd" d="M7.47045 3.47077C7.70574 3.35312 8.58808 3.11783 9.29395 3.05901C9.99983 3.05901 10.4116 3.17665 10.2939 3.82371C8.23514 3.82371 6.82339 4.23546 6.52928 5.64721C6.11752 8.00012 8.6469 8.05895 9.64689 7.00014L9.47042 7.64719H11.3527L12.1763 3.82371C12.5292 2.23549 11.0586 1.82373 9.76453 1.82373L7.47045 3.47077ZM9.88218 5.70603C9.76453 6.17662 9.35277 6.35309 8.88219 6.41191C8.47043 6.41191 8.1175 6.17662 8.41161 5.70603C8.6469 5.3531 9.17631 5.3531 9.52924 5.3531H9.99983C9.941 5.29427 9.88218 5.52957 9.88218 5.70603Z" fill="#1A5B80"/>
<path fill-rule="evenodd" clip-rule="evenodd" d="M12.9408 1.76465H14.8231L15.1172 5.05872L16.9995 1.76465H18.9407L14.4702 9.99984H12.3525L13.7055 7.52928L12.9408 1.76465Z" fill="#21789E"/>
<path fill-rule="evenodd" clip-rule="evenodd" d="M14.8231 1.88229L15.1172 5.11755L16.9995 1.76465H18.9407L14.4702 9.99984H12.3525L13.7055 7.58811" fill="#1A5B80"/>
<path fill-rule="evenodd" clip-rule="evenodd" d="M5.05876 0H1.52939L0 7.64696H2.0588L2.5882 5.29405H4.05877C5.47052 5.29405 6.64698 4.47053 6.94109 2.99996C7.29403 1.2941 6.05875 0 5.05876 0ZM4.99994 2.64703C4.88229 3.17643 4.35289 3.52937 3.82348 3.52937H2.88232L3.29408 1.76468H4.29406C4.82347 1.76468 5.11758 2.11762 4.99994 2.64703Z" fill="#21789E"/>
<path fill-rule="evenodd" clip-rule="evenodd" d="M5.05876 0H3.47054L0 7.64696H2.0588L2.5882 5.29405H4.05877C5.47052 5.29405 6.64698 4.47053 6.94109 2.99996C7.29403 1.2941 6.05875 0 5.05876 0ZM4.99994 2.64703C4.88229 3.17643 4.35289 3.52937 3.82348 3.52937H2.88232L3.29408 1.76468H4.29406C4.82347 1.76468 5.11758 2.11762 4.99994 2.64703Z" fill="#1A5B80"/>
<path fill-rule="evenodd" clip-rule="evenodd" d="M9.35311 3.82345C7.7649 3.94109 6.70609 4.41167 6.4708 5.58813C6.05904 7.94104 8.58842 7.99986 9.5884 6.94105L9.47076 7.64693H11.3531L11.6472 6.23518L9.35311 3.82345ZM9.88252 5.70578C9.76487 6.17636 9.35311 6.35283 8.88253 6.41165C8.47077 6.41165 8.11784 6.17636 8.41195 5.70578C8.64724 5.35284 9.17665 5.35284 9.52958 5.35284H10.0002C9.94134 5.29402 9.88252 5.52931 9.88252 5.70578ZM15.2354 4.9999L15.1177 5.17637L16.353 6.35283L18.9412 1.76465H17.0001L15.2354 4.9999ZM2.05909 7.64693L2.58849 5.29402L0.176758 7.64693H2.05909Z" fill="#06435E"/>
<path fill-rule="evenodd" clip-rule="evenodd" d="M20.2935 7.64697L20.8229 5.17641V5.23523L18.4111 7.64697H20.2935ZM27.6463 3.82349C26.0581 3.94113 24.9993 4.41171 24.764 5.58817C24.3522 7.94108 26.9404 7.9999 27.9404 6.94109L27.764 7.64697H29.6463L29.9404 6.23522L27.6463 3.82349ZM28.1757 5.70582C28.0581 6.1764 27.6463 6.35287 27.1757 6.41169C26.764 6.41169 26.411 6.1764 26.6463 5.70582C26.8816 5.35288 27.411 5.35288 27.8228 5.35288H28.2934C28.2345 5.29406 28.1757 5.52935 28.1757 5.70582ZM31.8816 4.17642L30.5286 7.64697H32.411L32.9404 5.29406L31.8816 4.17642Z" fill="#2273AA"/>
<path d="M34.4113 1.2351V0.411576H34.1172V0.29393H34.8819V0.411576H34.5878V1.2351H34.4113ZM34.9995 1.2351V0.29393H35.176L35.4113 0.940981C35.4113 0.999804 35.4701 1.05863 35.4701 1.05863C35.4701 0.999803 35.4701 0.999804 35.5289 0.882158L35.7642 0.235107H35.9407V1.17627H35.823V0.352753L35.5289 1.17627H35.3525L35.0584 0.352753V1.17627H34.9995V1.2351Z" fill="#32A6CE"/>
</svg>
