<svg width="19" height="16" viewBox="0 0 19 16" fill="none" xmlns="http://www.w3.org/2000/svg">
<path d="M18.4848 2.14255C17.8063 2.44323 17.0774 2.64639 16.311 2.73821C17.1017 2.26509 17.6933 1.52046 17.9753 0.643248C17.2324 1.0845 16.4194 1.39509 15.5716 1.56152C15.0014 0.952752 14.2462 0.549248 13.4232 0.413658C12.6002 0.278069 11.7555 0.417979 11.0202 0.811668C10.2849 1.20536 9.7001 1.8308 9.35666 2.59089C9.01323 3.35098 8.93034 4.20319 9.12087 5.01521C7.61562 4.93963 6.14309 4.54839 4.79883 3.86688C3.45457 3.18537 2.26863 2.22883 1.31798 1.05932C0.992922 1.62003 0.806017 2.27014 0.806017 2.9625C0.805654 3.58579 0.959143 4.19953 1.25287 4.74926C1.54659 5.299 1.97146 5.76774 2.48979 6.11389C1.88867 6.09476 1.30081 5.93234 0.775137 5.64013V5.68888C0.775076 6.56307 1.07746 7.41035 1.63099 8.08696C2.18451 8.76357 2.95508 9.22784 3.81194 9.40099C3.2543 9.55191 2.66966 9.57414 2.10217 9.466C2.34392 10.2182 2.81484 10.8759 3.449 11.3472C4.08315 11.8184 4.8488 12.0796 5.63874 12.0941C4.29776 13.1467 2.64166 13.7178 0.936851 13.7153C0.634861 13.7153 0.333127 13.6977 0.0332031 13.6624C1.76368 14.7751 3.77809 15.3656 5.8354 15.3633C12.7997 15.3633 16.6068 9.59521 16.6068 4.59264C16.6068 4.43012 16.6028 4.26596 16.5955 4.10344C17.336 3.56789 17.9752 2.90472 18.4832 2.14499L18.4848 2.14255Z" fill="#666666"/>
</svg>
