<svg width="50" height="50" viewBox="0 0 50 50" fill="none" xmlns="http://www.w3.org/2000/svg">
<path d="M12.6788 49.8226C10.7449 49.801 8.82909 49.4463 7.01562 48.774C5.69134 48.2845 4.4932 47.5052 3.50879 46.4932C2.49398 45.5107 1.71355 44.3123 1.22548 42.9868C0.553795 41.1734 0.199597 39.2578 0.17843 37.3241C0.0299017 34.1095 0 33.1453 0 24.9998C0 16.8542 0.0328428 15.8935 0.176959 12.6763C0.200695 10.7434 0.555329 8.82882 1.22548 7.01562C1.71593 5.69112 2.49525 4.4925 3.50683 3.50683C4.49002 2.49293 5.68872 1.71323 7.01415 1.22548C8.82762 0.553238 10.7434 0.198541 12.6773 0.176959C15.893 0.0299017 16.8587 0 24.9998 0C33.1409 0 34.106 0.0328428 37.3232 0.176959C39.2566 0.200528 41.1717 0.555164 42.9854 1.22548C44.3102 1.71387 45.5086 2.4933 46.4922 3.50634C47.5055 4.49027 48.2853 5.68896 48.774 7.01415C49.4464 8.82759 49.8013 10.7434 49.823 12.6773C49.9701 15.8945 50 16.8577 50 25.0007C50 33.1438 49.9701 34.107 49.823 37.3241C49.7997 39.2578 49.4449 41.1731 48.774 42.9868C48.2666 44.3021 47.4894 45.4965 46.4924 46.4933C45.4954 47.49 44.3008 48.2669 42.9854 48.774C41.1719 49.4464 39.2562 49.8013 37.3222 49.823C34.108 49.9701 33.1418 50 24.9988 50C16.8557 50 15.8925 49.9716 12.6783 49.823" fill="url(#paint0_radial_241_24580)"/>
<path d="M12.6788 49.8226C10.7449 49.801 8.82909 49.4463 7.01562 48.774C5.69134 48.2845 4.4932 47.5052 3.50879 46.4932C2.49398 45.5107 1.71355 44.3123 1.22548 42.9868C0.553795 41.1734 0.199597 39.2578 0.17843 37.3241C0.0299017 34.1095 0 33.1453 0 24.9998C0 16.8542 0.0328428 15.8935 0.176959 12.6763C0.200695 10.7434 0.555329 8.82882 1.22548 7.01562C1.71593 5.69112 2.49525 4.4925 3.50683 3.50683C4.49002 2.49293 5.68872 1.71323 7.01415 1.22548C8.82762 0.553238 10.7434 0.198541 12.6773 0.176959C15.893 0.0299017 16.8587 0 24.9998 0C33.1409 0 34.106 0.0328428 37.3232 0.176959C39.2566 0.200528 41.1717 0.555164 42.9854 1.22548C44.3102 1.71387 45.5086 2.4933 46.4922 3.50634C47.5055 4.49027 48.2853 5.68896 48.774 7.01415C49.4464 8.82759 49.8013 10.7434 49.823 12.6773C49.9701 15.8945 50 16.8577 50 25.0007C50 33.1438 49.9701 34.107 49.823 37.3241C49.7997 39.2578 49.4449 41.1731 48.774 42.9868C48.2666 44.3021 47.4894 45.4965 46.4924 46.4933C45.4954 47.49 44.3008 48.2669 42.9854 48.774C41.1719 49.4464 39.2562 49.8013 37.3222 49.823C34.108 49.9701 33.1418 50 24.9988 50C16.8557 50 15.8925 49.9716 12.6783 49.823" fill="url(#paint1_radial_241_24580)"/>
<path d="M18.8608 25.1063C18.8609 23.8817 19.2241 22.6846 19.9045 21.6665C20.585 20.6483 21.5521 19.8548 22.6835 19.3863C23.8149 18.9177 25.0599 18.7953 26.2609 19.0343C27.462 19.2733 28.5652 19.8632 29.431 20.7292C30.2968 21.5952 30.8864 22.6986 31.1251 23.8997C31.3639 25.1008 31.2411 26.3457 30.7723 27.477C30.3035 28.6083 29.5098 29.5752 28.4915 30.2554C27.4731 30.9356 26.276 31.2986 25.0514 31.2984C23.4094 31.2981 21.8347 30.6456 20.6737 29.4844C19.5128 28.3232 18.8606 26.7483 18.8608 25.1063ZM15.5132 25.1063C15.5132 26.9928 16.0726 28.8369 17.1207 30.4054C18.1688 31.974 19.6584 33.1965 21.4013 33.9184C23.1442 34.6403 25.062 34.8292 26.9122 34.4612C28.7624 34.0931 30.4619 33.1847 31.7959 31.8508C33.1298 30.5169 34.0382 28.8173 34.4062 26.9671C34.7743 25.1169 34.5854 23.1991 33.8635 21.4562C33.1416 19.7133 31.919 18.2237 30.3505 17.1756C28.7819 16.1276 26.9378 15.5682 25.0514 15.5682C23.7988 15.5681 22.5585 15.8148 21.4012 16.2941C20.244 16.7734 19.1925 17.476 18.3068 18.3617C17.421 19.2474 16.7185 20.2989 16.2392 21.4561C15.7598 22.6134 15.5132 23.8537 15.5132 25.1063ZM32.7381 15.1902C32.7379 15.6311 32.8684 16.0621 33.1132 16.4287C33.3579 16.7953 33.7059 17.0812 34.1131 17.2501C34.5203 17.4189 34.9684 17.4633 35.4008 17.3775C35.8332 17.2917 36.2305 17.0795 36.5424 16.768C36.8542 16.4564 37.0667 16.0593 37.1528 15.627C37.239 15.1947 37.1951 14.7465 37.0266 14.3391C36.8581 13.9318 36.5725 13.5836 36.2061 13.3385C35.8397 13.0934 35.4088 12.9625 34.9679 12.9623C34.3771 12.9626 33.8104 13.1974 33.3925 13.6151C32.9746 14.0328 32.7396 14.5993 32.739 15.1902H32.7381ZM17.548 40.2263C16.3702 40.2133 15.2033 39.9978 14.0985 39.589C13.2974 39.2802 12.5697 38.8071 11.9624 38.2C11.3552 37.593 10.8817 36.8656 10.5726 36.0645C10.1637 34.9598 9.9481 33.7929 9.93535 32.615C9.84516 30.6572 9.82751 30.069 9.82751 25.1088C9.82751 20.1485 9.84712 19.5618 9.93535 17.602C9.94964 16.4242 10.1652 15.2576 10.5726 14.1525C10.8814 13.3511 11.3547 12.6232 11.962 12.0159C12.5693 11.4086 13.2971 10.9353 14.0985 10.6265C15.2032 10.2176 16.3701 10.0021 17.548 9.9893C19.5058 9.89911 20.0941 9.88146 25.0524 9.88146C30.0106 9.88146 30.5994 9.90058 32.5591 9.98979C33.7369 10.0041 34.9035 10.2196 36.0086 10.627C36.81 10.9358 37.5379 11.4092 38.1452 12.0165C38.7525 12.6238 39.2258 13.3516 39.5346 14.153C39.9435 15.2577 40.159 16.4246 40.1718 17.6025C40.262 19.5632 40.2797 20.1485 40.2797 25.1093C40.2797 30.07 40.2615 30.6563 40.1718 32.616C40.1581 33.7938 39.9426 34.9605 39.5346 36.0655C39.2254 36.8666 38.752 37.594 38.1447 38.201C37.5374 38.808 36.8098 39.2812 36.0086 39.59C34.9039 39.9989 33.737 40.2145 32.5591 40.2272C30.6013 40.3174 30.0131 40.3351 25.0524 40.3351C20.0916 40.3351 19.5054 40.3169 17.548 40.2272V40.2263ZM17.3941 6.64473C15.8529 6.67503 14.3279 6.96674 12.8843 7.50745C11.6503 7.98459 10.5296 8.71434 9.59399 9.6499C8.65843 10.5855 7.92868 11.7062 7.45154 12.9402C6.91091 14.3839 6.6192 15.9088 6.58882 17.45C6.49715 19.4304 6.47656 20.0637 6.47656 25.1083C6.47656 30.1528 6.49764 30.7857 6.58882 32.7665C6.61919 34.3078 6.9109 35.8327 7.45154 37.2763C7.92871 38.5103 8.65846 39.631 9.59402 40.5666C10.5296 41.5022 11.6503 42.2319 12.8843 42.7091C14.328 43.2495 15.8529 43.5413 17.3941 43.5718C19.3755 43.662 20.0078 43.6841 25.0524 43.6841C30.0969 43.6841 30.7298 43.663 32.7106 43.5718C34.2519 43.5414 35.7767 43.2497 37.2204 42.7091C38.4544 42.2319 39.5751 41.5022 40.5107 40.5666C41.4462 39.631 42.176 38.5103 42.6532 37.2763C43.1945 35.8329 43.4863 34.3078 43.5159 32.7665C43.6061 30.7847 43.6267 30.1528 43.6267 25.1083C43.6267 20.0637 43.6056 19.4309 43.5159 17.45C43.4856 15.9088 43.1939 14.3838 42.6532 12.9402C42.176 11.7064 41.4465 10.5859 40.5112 9.65033C39.5759 8.7148 38.4555 7.98492 37.2219 7.50745C35.7784 6.96639 34.2534 6.67467 32.7121 6.64473C30.7312 6.55404 30.0984 6.53247 25.0548 6.53247C20.0112 6.53247 19.3769 6.55355 17.3951 6.64473" fill="white"/>
<defs>
<radialGradient id="paint0_radial_241_24580" cx="0" cy="0" r="1" gradientUnits="userSpaceOnUse" gradientTransform="translate(3.23575 48.9044) scale(63.4808)">
<stop offset="0.09" stop-color="#FA8F21"/>
<stop offset="0.78" stop-color="#D82D7E"/>
</radialGradient>
<radialGradient id="paint1_radial_241_24580" cx="0" cy="0" r="1" gradientUnits="userSpaceOnUse" gradientTransform="translate(34.633 47.2986) scale(55.8637)">
<stop offset="0.64" stop-color="#8C3AAA" stop-opacity="0"/>
<stop offset="1" stop-color="#8C3AAA"/>
</radialGradient>
</defs>
</svg>
